<?xml version="1.0" encoding="UTF-8" standalone="no"?>
<!DOCTYPE svg PUBLIC "-//W3C//DTD SVG 1.1//EN"
 "http://www.w3.org/Graphics/SVG/1.1/DTD/svg11.dtd">
<!-- Generated by graphviz version 14.1.2 (20260126.1125)
 -->
<!-- Title: testbed_central Pages: 1 -->
<svg width="681pt" height="373pt"
 viewBox="0.00 0.00 681.00 373.00" xmlns="http://www.w3.org/2000/svg" xmlns:xlink="http://www.w3.org/1999/xlink">
<g id="graph0" class="graph" transform="scale(1 1) rotate(0) translate(4 368.59)">
<title>testbed_central</title>
<polygon fill="white" stroke="none" points="-4,4 -4,-368.59 676.92,-368.59 676.92,4 -4,4"/>
<g id="clust1" class="cluster">
<title>cluster_lf</title>
<path fill="white" stroke="#b0bec5" stroke-width="1.2" stroke-dasharray="5,2" d="M109.46,-86.53C109.46,-86.53 563.46,-86.53 563.46,-86.53 569.46,-86.53 575.46,-92.53 575.46,-98.53 575.46,-98.53 575.46,-344.59 575.46,-344.59 575.46,-350.59 569.46,-356.59 563.46,-356.59 563.46,-356.59 109.46,-356.59 109.46,-356.59 103.46,-356.59 97.46,-350.59 97.46,-344.59 97.46,-344.59 97.46,-98.53 97.46,-98.53 97.46,-92.53 103.46,-86.53 109.46,-86.53"/>
</g>
<g id="clust2" class="cluster">
<title>cluster_r1</title>
<path fill="#eceff1" stroke="#90a4ae" stroke-width="1.5" d="M117.46,-266.81C117.46,-266.81 231.46,-266.81 231.46,-266.81 237.46,-266.81 243.46,-272.81 243.46,-278.81 243.46,-278.81 243.46,-336.59 243.46,-336.59 243.46,-342.59 237.46,-348.59 231.46,-348.59 231.46,-348.59 117.46,-348.59 117.46,-348.59 111.46,-348.59 105.46,-342.59 105.46,-336.59 105.46,-336.59 105.46,-278.81 105.46,-278.81 105.46,-272.81 111.46,-266.81 117.46,-266.81"/>
<text xml:space="preserve" text-anchor="middle" x="174.46" y="-334.14" font-family="Helvetica,sans-Serif" font-weight="bold" font-size="11.00" fill="#37474f">robot 1</text>
</g>
<g id="clust3" class="cluster">
<title>cluster_r2</title>
<path fill="#eceff1" stroke="#90a4ae" stroke-width="1.5" d="M279.46,-266.81C279.46,-266.81 393.46,-266.81 393.46,-266.81 399.46,-266.81 405.46,-272.81 405.46,-278.81 405.46,-278.81 405.46,-336.59 405.46,-336.59 405.46,-342.59 399.46,-348.59 393.46,-348.59 393.46,-348.59 279.46,-348.59 279.46,-348.59 273.46,-348.59 267.46,-342.59 267.46,-336.59 267.46,-336.59 267.46,-278.81 267.46,-278.81 267.46,-272.81 273.46,-266.81 279.46,-266.81"/>
<text xml:space="preserve" text-anchor="middle" x="336.46" y="-334.14" font-family="Helvetica,sans-Serif" font-weight="bold" font-size="11.00" fill="#37474f">robot 2</text>
</g>
<g id="clust4" class="cluster">
<title>cluster_rN</title>
<path fill="#eceff1" stroke="#90a4ae" stroke-width="1.5" d="M441.46,-266.81C441.46,-266.81 555.46,-266.81 555.46,-266.81 561.46,-266.81 567.46,-272.81 567.46,-278.81 567.46,-278.81 567.46,-336.59 567.46,-336.59 567.46,-342.59 561.46,-348.59 555.46,-348.59 555.46,-348.59 441.46,-348.59 441.46,-348.59 435.46,-348.59 429.46,-342.59 429.46,-336.59 429.46,-336.59 429.46,-278.81 429.46,-278.81 429.46,-272.81 435.46,-266.81 441.46,-266.81"/>
<text xml:space="preserve" text-anchor="middle" x="498.46" y="-334.14" font-family="Helvetica,sans-Serif" font-weight="bold" font-size="11.00" fill="#37474f">robot N</text>
</g>
<!-- a1 -->
<g id="node1" class="node">
<title>a1</title>
<path fill="#c5e1a5" stroke="black" stroke-width="1.1" d="M223.66,-319.09C223.66,-319.09 125.26,-319.09 125.26,-319.09 119.26,-319.09 113.26,-313.09 113.26,-307.09 113.26,-307.09 113.26,-286.81 113.26,-286.81 113.26,-280.81 119.26,-274.81 125.26,-274.81 125.26,-274.81 223.66,-274.81 223.66,-274.81 229.66,-274.81 235.66,-280.81 235.66,-286.81 235.66,-286.81 235.66,-307.09 235.66,-307.09 235.66,-313.09 229.66,-319.09 223.66,-319.09"/>
<text xml:space="preserve" text-anchor="middle" x="174.46" y="-300" font-family="Helvetica,sans-Serif" font-size="11.00">ROS app</text>
<text xml:space="preserve" text-anchor="middle" x="174.46" y="-286.5" font-family="Helvetica,sans-Serif" font-size="11.00">bridge · policy</text>
</g>
<!-- fc -->
<g id="node4" class="node">
<title>fc</title>
<path fill="#bbdefb" stroke="#1e88e5" stroke-width="2" d="M403.79,-224.81C403.79,-224.81 269.12,-224.81 269.12,-224.81 263.12,-224.81 257.12,-218.81 257.12,-212.81 257.12,-212.81 257.12,-192.53 257.12,-192.53 257.12,-186.53 263.12,-180.53 269.12,-180.53 269.12,-180.53 403.79,-180.53 403.79,-180.53 409.79,-180.53 415.79,-186.53 415.79,-192.53 415.79,-192.53 415.79,-212.81 415.79,-212.81 415.79,-218.81 409.79,-224.81 403.79,-224.81"/>
<text xml:space="preserve" text-anchor="middle" x="336.46" y="-205.72" font-family="Helvetica,sans-Serif" font-size="11.00">central coordinator</text>
<text xml:space="preserve" text-anchor="middle" x="336.46" y="-192.22" font-family="Helvetica,sans-Serif" font-size="11.00">(single shared federate)</text>
</g>
<!-- a1&#45;&gt;fc -->
<g id="edge1" class="edge">
<title>a1&#45;&gt;fc</title>
<path fill="none" stroke="#1565c0" d="M212.44,-274.31C235.05,-261.44 263.95,-244.98 288.16,-231.18"/>
<polygon fill="#1565c0" stroke="#1565c0" points="289.6,-234.39 296.56,-226.4 286.14,-228.31 289.6,-234.39"/>
</g>
<!-- a2 -->
<g id="node2" class="node">
<title>a2</title>
<path fill="#c5e1a5" stroke="black" stroke-width="1.1" d="M385.66,-319.09C385.66,-319.09 287.26,-319.09 287.26,-319.09 281.26,-319.09 275.26,-313.09 275.26,-307.09 275.26,-307.09 275.26,-286.81 275.26,-286.81 275.26,-280.81 281.26,-274.81 287.26,-274.81 287.26,-274.81 385.66,-274.81 385.66,-274.81 391.66,-274.81 397.66,-280.81 397.66,-286.81 397.66,-286.81 397.66,-307.09 397.66,-307.09 397.66,-313.09 391.66,-319.09 385.66,-319.09"/>
<text xml:space="preserve" text-anchor="middle" x="336.46" y="-300" font-family="Helvetica,sans-Serif" font-size="11.00">ROS app</text>
<text xml:space="preserve" text-anchor="middle" x="336.46" y="-286.5" font-family="Helvetica,sans-Serif" font-size="11.00">bridge · policy</text>
</g>
<!-- a2&#45;&gt;fc -->
<g id="edge2" class="edge">
<title>a2&#45;&gt;fc</title>
<path fill="none" stroke="#1565c0" d="M336.46,-274.55C336.46,-263.41 336.46,-249.55 336.46,-237.04"/>
<polygon fill="#1565c0" stroke="#1565c0" points="339.96,-237.11 336.46,-227.11 332.96,-237.11 339.96,-237.11"/>
</g>
<!-- aN -->
<g id="node3" class="node">
<title>aN</title>
<path fill="#c5e1a5" stroke="black" stroke-width="1.1" d="M547.66,-319.09C547.66,-319.09 449.26,-319.09 449.26,-319.09 443.26,-319.09 437.26,-313.09 437.26,-307.09 437.26,-307.09 437.26,-286.81 437.26,-286.81 437.26,-280.81 443.26,-274.81 449.26,-274.81 449.26,-274.81 547.66,-274.81 547.66,-274.81 553.66,-274.81 559.66,-280.81 559.66,-286.81 559.66,-286.81 559.66,-307.09 559.66,-307.09 559.66,-313.09 553.66,-319.09 547.66,-319.09"/>
<text xml:space="preserve" text-anchor="middle" x="498.46" y="-300" font-family="Helvetica,sans-Serif" font-size="11.00">ROS app</text>
<text xml:space="preserve" text-anchor="middle" x="498.46" y="-286.5" font-family="Helvetica,sans-Serif" font-size="11.00">bridge · policy</text>
</g>
<!-- aN&#45;&gt;fc -->
<g id="edge3" class="edge">
<title>aN&#45;&gt;fc</title>
<path fill="none" stroke="#1565c0" d="M460.48,-274.31C437.87,-261.44 408.97,-244.98 384.76,-231.18"/>
<polygon fill="#1565c0" stroke="#1565c0" points="386.78,-228.31 376.36,-226.4 383.32,-234.39 386.78,-228.31"/>
</g>
<!-- rti -->
<g id="node5" class="node">
<title>rti</title>
<path fill="#ffe0b2" stroke="black" stroke-width="1.6" d="M394.42,-130.53C394.42,-130.53 278.5,-130.53 278.5,-130.53 272.5,-130.53 266.5,-124.53 266.5,-118.53 266.5,-118.53 266.5,-106.53 266.5,-106.53 266.5,-100.53 272.5,-94.53 278.5,-94.53 278.5,-94.53 394.42,-94.53 394.42,-94.53 400.42,-94.53 406.42,-100.53 406.42,-106.53 406.42,-106.53 406.42,-118.53 406.42,-118.53 406.42,-124.53 400.42,-130.53 394.42,-130.53"/>
<text xml:space="preserve" text-anchor="middle" x="336.46" y="-108.83" font-family="Helvetica,sans-Serif" font-size="11.00">RTI &#160;&#160;— &#160;&#160;logical time</text>
</g>
<!-- fc&#45;&gt;rti -->
<g id="edge4" class="edge">
<title>fc&#45;&gt;rti</title>
<path fill="none" stroke="#1565c0" d="M336.46,-179.88C336.46,-168.64 336.46,-154.78 336.46,-142.63"/>
<polygon fill="#1565c0" stroke="#1565c0" points="339.96,-142.74 336.46,-132.74 332.96,-142.74 339.96,-142.74"/>
</g>
<!-- legend -->
<g id="node6" class="node">
<title>legend</title>
<path fill="none" stroke="none" stroke-width="1.1" d="M660.92,-44.53C660.92,-44.53 12,-44.53 12,-44.53 6,-44.53 0,-38.53 0,-32.53 0,-32.53 0,-12 0,-12 0,-6 6,0 12,0 12,0 660.92,0 660.92,0 666.92,0 672.92,-6 672.92,-12 672.92,-12 672.92,-32.53 672.92,-32.53 672.92,-38.53 666.92,-44.53 660.92,-44.53"/>
<text xml:space="preserve" text-anchor="start" x="20.96" y="-19.34" font-family="Helvetica,sans-Serif" font-size="9.00" fill="#1565c0">—— control plane (every app → one coordinator → RTI)</text>
<text xml:space="preserve" text-anchor="start" x="278.46" y="-19.34" font-family="Helvetica,sans-Serif" font-size="9.00" fill="#1e88e5">single coordinator: contention point + single point of failure (no inter&#45;robot gossip)</text>
</g>
<!-- rti&#45;&gt;legend -->
</g>
</svg>
