<?xml version="1.0" standalone="no"?>

<svg
     version="1.1"
     baseProfile="full"
     xmlns="http://www.w3.org/2000/svg"
     xmlns:xlink="http://www.w3.org/1999/xlink"
     xmlns:ev="http://www.w3.org/2001/xml-events"
     xmlns:klighd="http://de.cau.cs.kieler/klighd"
     x="0px"
     y="0px"
     width="708px"
     height="92px"
     viewBox="0 0 708 92"
     >
<title></title>
<desc>Creator: FreeHEP Graphics2D Driver Producer: de.cau.cs.kieler.klighd.piccolo.freehep.SemanticSVGGraphics2D Revision Source:  Date: Monday, April 20, 2026, 12:09:30 AM Pacific Daylight Time</desc>
<g stroke-dashoffset="0" stroke-linejoin="miter" stroke-dasharray="none" stroke-width="1" stroke-linecap="butt" stroke-miterlimit="10">
<g fill="#ffffff" fill-rule="nonzero" fill-opacity="1" stroke="none">
  <path d="M 0 0 L 708.4666748046875 0 L 708.4666748046875 91.99999284744263 L 0 91.99999284744263 L 0 0 z"/>
</g>
<g transform="matrix(1, 0, 0, 1, -0, 1.499992847442627)">
<g fill="#ffffff" fill-rule="nonzero" fill-opacity="1" stroke="none">
  <path d="M 0.5 8.5 L 0.5 82 C 0.5 86.41827799864635 4.081722001353653 90 8.5 90 L 699.9666748046875 90 C 704.3849528033338 90 707.9666748046875 86.41827799864635 707.9666748046875 82 L 707.9666748046875 8.5 C 707.9666748046875 4.081722001353653 704.3849528033338 0.5 699.9666748046875 0.5 L 8.5 0.5 C 4.081722001353653 0.5 0.5 4.081722001353653 0.5 8.5 z"/>
</g>
</g>
<g transform="matrix(1, 0, 0, 1, -0, 1.499992847442627)">
<g stroke-opacity="1" fill="none" stroke="#bebebe">
  <path d="M 0.5 8.5 L 0.5 82 C 0.5 86.41827799864635 4.081722001353653 90 8.5 90 L 699.9666748046875 90 C 704.3849528033338 90 707.9666748046875 86.41827799864635 707.9666748046875 82 L 707.9666748046875 8.5 C 707.9666748046875 4.081722001353653 704.3849528033338 0.5 699.9666748046875 0.5 L 8.5 0.5 C 4.081722001353653 0.5 0.5 4.081722001353653 0.5 8.5 z"/>
</g>
</g>
<g transform="matrix(1, 0, 0, 1, 305.23333740234375, 7.499992847442627)">
  <text x="0" y="13.333334" font-weight="normal" font-size="13.333333969116211px" font-family="Overpass" font-style="normal" fill="#000000" fill-opacity="1" stroke="none">coordinator</text>
</g>
<g transform="matrix(1, 0, 0, 1, 383.5666732788086, 15.939985752105713)">
<g fill="#bebebe" fill-rule="nonzero" fill-opacity="1" stroke="none">
  <path d="M 0.5 2.5 L 0.5 3.5 C 0.5 4.6045694996615865 1.3954305003384133 5.5 2.5 5.5 L 17.5 5.5 C 18.604569499661586 5.5 19.5 4.6045694996615865 19.5 3.5 L 19.5 2.5 C 19.5 1.3954305003384133 18.604569499661586 0.5 17.5 0.5 L 2.5 0.5 C 1.3954305003384133 0.5 0.5 1.3954305003384133 0.5 2.5 z"/>
</g>
</g>
<g transform="matrix(1, 0, 0, 1, 383.5666732788086, 15.939985752105713)">
<g stroke-opacity="1" fill="none" stroke="#bebebe">
  <path d="M 0.5 2.5 L 0.5 3.5 C 0.5 4.6045694996615865 1.3954305003384133 5.5 2.5 5.5 L 17.5 5.5 C 18.604569499661586 5.5 19.5 4.6045694996615865 19.5 3.5 L 19.5 2.5 C 19.5 1.3954305003384133 18.604569499661586 0.5 17.5 0.5 L 2.5 0.5 C 1.3954305003384133 0.5 0.5 1.3954305003384133 0.5 2.5 z"/>
</g>
</g>
<g transform="matrix(1, 0, 0, 1, 381.5666732788086, 13.914387226104736)">
<g fill="#bebebe" fill-rule="nonzero" fill-opacity="1" stroke="none">
  <path d="M 7.5 4 C 7.5 5.932996624407776 5.932996624407776 7.5 4 7.5 C 2.0670033755922232 7.5 0.5 5.932996624407776 0.5 4 C 0.5 2.0670033755922232 2.0670033755922232 0.5 4 0.5 C 5.932996624407776 0.5 7.5 2.0670033755922232 7.5 4 z"/>
</g>
</g>
<g transform="matrix(1, 0, 0, 1, 381.5666732788086, 13.914387226104736)">
<g stroke-opacity="1" fill="none" stroke="#bebebe">
  <path d="M 7.5 4 C 7.5 5.932996624407776 5.932996624407776 7.5 4 7.5 C 2.0670033755922232 7.5 0.5 5.932996624407776 0.5 4 C 0.5 2.0670033755922232 2.0670033755922232 0.5 4 0.5 C 5.932996624407776 0.5 7.5 2.0670033755922232 7.5 4 z"/>
</g>
</g>
<g transform="matrix(1, 0, 0, 1, 385.90000677108765, 11.71998929977417)">
<g fill="#bebebe" fill-rule="nonzero" fill-opacity="1" stroke="none">
  <path d="M 6.166666507720947 3.3333332538604736 C 6.166666507720947 4.898140001156072 4.898140001156072 6.166666507720947 3.3333332538604736 6.166666507720947 C 1.7685265065648743 6.166666507720947 0.5 4.898140001156072 0.5 3.3333332538604736 C 0.5 1.7685265065648743 1.7685265065648743 0.5 3.3333332538604736 0.5 C 4.898140001156072 0.5 6.166666507720947 1.7685265065648743 6.166666507720947 3.3333332538604736 z"/>
</g>
</g>
<g transform="matrix(1, 0, 0, 1, 385.90000677108765, 11.71998929977417)">
<g stroke-opacity="1" fill="none" stroke="#bebebe">
  <path d="M 6.166666507720947 3.3333332538604736 C 6.166666507720947 4.898140001156072 4.898140001156072 6.166666507720947 3.3333332538604736 6.166666507720947 C 1.7685265065648743 6.166666507720947 0.5 4.898140001156072 0.5 3.3333332538604736 C 0.5 1.7685265065648743 1.7685265065648743 0.5 3.3333332538604736 0.5 C 4.898140001156072 0.5 6.166666507720947 1.7685265065648743 6.166666507720947 3.3333332538604736 z"/>
</g>
</g>
<g transform="matrix(1, 0, 0, 1, 390.36667346954346, 9.499992847442627)">
<g fill="#bebebe" fill-rule="nonzero" fill-opacity="1" stroke="none">
  <path d="M 9.5 5 C 9.5 7.4852813742385695 7.4852813742385695 9.5 5 9.5 C 2.51471862576143 9.5 0.5 7.4852813742385695 0.5 5 C 0.5 2.51471862576143 2.51471862576143 0.5 5 0.5 C 7.4852813742385695 0.5 9.5 2.51471862576143 9.5 5 z"/>
</g>
</g>
<g transform="matrix(1, 0, 0, 1, 390.36667346954346, 9.499992847442627)">
<g stroke-opacity="1" fill="none" stroke="#bebebe">
  <path d="M 9.5 5 C 9.5 7.4852813742385695 7.4852813742385695 9.5 5 9.5 C 2.51471862576143 9.5 0.5 7.4852813742385695 0.5 5 C 0.5 2.51471862576143 2.51471862576143 0.5 5 0.5 C 7.4852813742385695 0.5 9.5 2.51471862576143 9.5 5 z"/>
</g>
</g>
<g transform="matrix(1, 0, 0, 1, 475.9333190917969, 38.3799786567688)">
<g fill="#f2f2f2" fill-rule="nonzero" fill-opacity="1" stroke="none">
  <path d="M 0.5 8.5 L 0.5 30 C 0.5 34.418277998646346 4.081722001353653 38 8.5 38 L 131.5 38 C 135.91827799864635 38 139.5 34.418277998646346 139.5 30 L 139.5 8.5 C 139.5 4.081722001353653 135.91827799864635 0.5 131.5 0.5 L 8.5 0.5 C 4.081722001353653 0.5 0.5 4.081722001353653 0.5 8.5 z"/>
</g>
</g>
<g transform="matrix(1, 0, 0, 1, 475.9333190917969, 38.3799786567688)">
<g stroke-opacity="1" fill="none" stroke="#bebebe">
  <path d="M 0.5 8.5 L 0.5 30 C 0.5 34.418277998646346 4.081722001353653 38 8.5 38 L 131.5 38 C 135.91827799864635 38 139.5 34.418277998646346 139.5 30 L 139.5 8.5 C 139.5 4.081722001353653 135.91827799864635 0.5 131.5 0.5 L 8.5 0.5 C 4.081722001353653 0.5 0.5 4.081722001353653 0.5 8.5 z"/>
</g>
</g>
<g transform="matrix(1, 0, 0, 1, 481.9333190917969, 50.18998575210571)">
  <text x="0" y="13.333334" font-weight="normal" font-size="13.333333969116211px" font-family="Overpass" font-style="normal" fill="#000000" fill-opacity="1" stroke="none">CoordinatorFederate</text>
</g>
<g transform="matrix(1, 0, 0, 1, 471.23331928253174, 61.3799786567688)">
<g fill="#000000" fill-rule="nonzero" fill-opacity="1" stroke="none">
  <path d="M 0 0 L 8 4 L 0 8 z"/>
</g>
</g>
<g transform="matrix(1, 0, 0, 1, 471.23331928253174, 61.3799786567688)">
<g stroke-opacity="1" fill="none" stroke="#000000">
  <path d="M 0 0 L 8 4 L 0 8 z"/>
</g>
</g>
<g transform="matrix(1, 0, 0, 1, 374.56664752960205, 50.87615251541138)">
  <text x="0" y="10.666667" font-weight="normal" font-size="10.666666984558105px" font-family="Overpass" font-style="normal" fill="#000000" fill-opacity="1" stroke="none">proposal_from_fed1</text>
</g>
<g transform="matrix(1, 0, 0, 1, 471.23331928253174, 46.3799786567688)">
<g fill="#000000" fill-rule="nonzero" fill-opacity="1" stroke="none">
  <path d="M 0 0 L 8 4 L 0 8 z"/>
</g>
</g>
<g transform="matrix(1, 0, 0, 1, 471.23331928253174, 46.3799786567688)">
<g stroke-opacity="1" fill="none" stroke="#000000">
  <path d="M 0 0 L 8 4 L 0 8 z"/>
</g>
</g>
<g transform="matrix(1, 0, 0, 1, 371.8999834060669, 35.87615251541138)">
  <text x="0" y="10.666667" font-weight="normal" font-size="10.666666984558105px" font-family="Overpass" font-style="normal" fill="#000000" fill-opacity="1" stroke="none">proposal_from_fed2</text>
</g>
<g transform="matrix(1, 0, 0, 1, 612.6333160400391, 53.3799786567688)">
<g fill="#000000" fill-rule="nonzero" fill-opacity="1" stroke="none">
  <path d="M 0 0 L 8 4 L 0 8 z"/>
</g>
</g>
<g transform="matrix(1, 0, 0, 1, 612.6333160400391, 53.3799786567688)">
<g stroke-opacity="1" fill="none" stroke="#000000">
  <path d="M 0 0 L 8 4 L 0 8 z"/>
</g>
</g>
<g transform="matrix(1, 0, 0, 1, 622.6333160400391, 42.87615251541138)">
  <text x="0" y="10.666667" font-weight="normal" font-size="10.666666984558105px" font-family="Overpass" font-style="normal" fill="#000000" fill-opacity="1" stroke="none">proposal_out</text>
</g>
<g transform="matrix(1, 0, 0, 1, 127.53333282470703, 38.3799786567688)">
<g fill="#f2f2f2" fill-rule="nonzero" fill-opacity="1" stroke="none">
  <path d="M 0.5 8.5 L 0.5 30 C 0.5 34.418277998646346 4.081722001353653 38 8.5 38 L 131.5 38 C 135.91827799864635 38 139.5 34.418277998646346 139.5 30 L 139.5 8.5 C 139.5 4.081722001353653 135.91827799864635 0.5 131.5 0.5 L 8.5 0.5 C 4.081722001353653 0.5 0.5 4.081722001353653 0.5 8.5 z"/>
</g>
</g>
<g transform="matrix(1, 0, 0, 1, 127.53333282470703, 38.3799786567688)">
<g stroke-opacity="1" fill="none" stroke="#bebebe">
  <path d="M 0.5 8.5 L 0.5 30 C 0.5 34.418277998646346 4.081722001353653 38 8.5 38 L 131.5 38 C 135.91827799864635 38 139.5 34.418277998646346 139.5 30 L 139.5 8.5 C 139.5 4.081722001353653 135.91827799864635 0.5 131.5 0.5 L 8.5 0.5 C 4.081722001353653 0.5 0.5 4.081722001353653 0.5 8.5 z"/>
</g>
</g>
<g transform="matrix(1, 0, 0, 1, 133.53333282470703, 50.18998575210571)">
  <text x="0" y="13.333334" font-weight="normal" font-size="13.333333969116211px" font-family="Overpass" font-style="normal" fill="#000000" fill-opacity="1" stroke="none">CoordinatorFederate</text>
</g>
<g transform="matrix(1, 0, 0, 1, 122.8333330154419, 46.3799786567688)">
<g fill="#000000" fill-rule="nonzero" fill-opacity="1" stroke="none">
  <path d="M 0 0 L 8 4 L 0 8 z"/>
</g>
</g>
<g transform="matrix(1, 0, 0, 1, 122.8333330154419, 46.3799786567688)">
<g stroke-opacity="1" fill="none" stroke="#000000">
  <path d="M 0 0 L 8 4 L 0 8 z"/>
</g>
</g>
<g transform="matrix(1, 0, 0, 1, 26.166661262512207, 35.87615251541138)">
  <text x="0" y="10.666667" font-weight="normal" font-size="10.666666984558105px" font-family="Overpass" font-style="normal" fill="#000000" fill-opacity="1" stroke="none">proposal_from_fed1</text>
</g>
<g transform="matrix(1, 0, 0, 1, 122.8333330154419, 61.3799786567688)">
<g fill="#000000" fill-rule="nonzero" fill-opacity="1" stroke="none">
  <path d="M 0 0 L 8 4 L 0 8 z"/>
</g>
</g>
<g transform="matrix(1, 0, 0, 1, 122.8333330154419, 61.3799786567688)">
<g stroke-opacity="1" fill="none" stroke="#000000">
  <path d="M 0 0 L 8 4 L 0 8 z"/>
</g>
</g>
<g transform="matrix(1, 0, 0, 1, 23.49999713897705, 50.87615251541138)">
  <text x="0" y="10.666667" font-weight="normal" font-size="10.666666984558105px" font-family="Overpass" font-style="normal" fill="#000000" fill-opacity="1" stroke="none">proposal_from_fed2</text>
</g>
<g transform="matrix(1, 0, 0, 1, 264.2333297729492, 53.3799786567688)">
<g fill="#000000" fill-rule="nonzero" fill-opacity="1" stroke="none">
  <path d="M 0 0 L 8 4 L 0 8 z"/>
</g>
</g>
<g transform="matrix(1, 0, 0, 1, 264.2333297729492, 53.3799786567688)">
<g stroke-opacity="1" fill="none" stroke="#000000">
  <path d="M 0 0 L 8 4 L 0 8 z"/>
</g>
</g>
<g transform="matrix(1, 0, 0, 1, 274.2333297729492, 42.87615251541138)">
  <text x="0" y="10.666667" font-weight="normal" font-size="10.666666984558105px" font-family="Overpass" font-style="normal" fill="#000000" fill-opacity="1" stroke="none">proposal_out</text>
</g>
<g transform="matrix(1, 0, 0, 1, 0, 28.3799786567688)">
<g stroke-opacity="1" fill="none" stroke="#000000">
  <path d="M 620.63330078125 29 L 695.2999877929688 29.25 L 695.2999877929688 58.5 L 361.8999938964844 58.5 L 361.8999938964844 37 L 471.23333740234375 37"/>
</g>
</g>
<g transform="matrix(1, 0, 0, 1, 0, 28.3799786567688)">
<g stroke-opacity="1" fill="none" stroke="#000000">
  <path d="M 620.63330078125 29 L 702.7999877929688 29 L 702.7999877929688 -1 L 6 -1 L 6 22 L 122.83333587646484 22"/>
</g>
</g>
<g transform="matrix(1, 0, 0, 1, 0, 28.3799786567688)">
<g stroke-opacity="1" fill="none" stroke="#000000">
  <path d="M 272.23333740234375 29 L 346.8999938964844 29.25 L 346.8999938964844 58.5 L 13.5 58.5 L 13.5 37 L 122.83333587646484 37"/>
</g>
</g>
<g transform="matrix(1, 0, 0, 1, 0, 28.3799786567688)">
<g stroke-opacity="1" fill="none" stroke="#000000">
  <path d="M 272.23333740234375 29 L 354.3999938964844 29 L 354.3999938964844 22 L 471.23333740234375 22"/>
</g>
</g>
</g>
</svg>
