<?xml version="1.0" encoding="UTF-8" standalone="no"?>
<!DOCTYPE svg PUBLIC "-//W3C//DTD SVG 1.1//EN"
 "http://www.w3.org/Graphics/SVG/1.1/DTD/svg11.dtd">
<!-- Generated by graphviz version 14.1.2 (20260126.1125)
 -->
<!-- Title: testbed_central Pages: 1 -->
<svg width="709pt" height="373pt"
 viewBox="0.00 0.00 709.00 373.00" xmlns="http://www.w3.org/2000/svg" xmlns:xlink="http://www.w3.org/1999/xlink">
<g id="graph0" class="graph" transform="scale(1 1) rotate(0) translate(4 368.59)">
<title>testbed_central</title>
<polygon fill="white" stroke="none" points="-4,4 -4,-368.59 704.92,-368.59 704.92,4 -4,4"/>
<g id="clust1" class="cluster">
<title>cluster_lf</title>
<path fill="white" stroke="#b0bec5" stroke-width="1.2" stroke-dasharray="5,2" d="M99.46,-86.53C99.46,-86.53 601.46,-86.53 601.46,-86.53 607.46,-86.53 613.46,-92.53 613.46,-98.53 613.46,-98.53 613.46,-344.59 613.46,-344.59 613.46,-350.59 607.46,-356.59 601.46,-356.59 601.46,-356.59 99.46,-356.59 99.46,-356.59 93.46,-356.59 87.46,-350.59 87.46,-344.59 87.46,-344.59 87.46,-98.53 87.46,-98.53 87.46,-92.53 93.46,-86.53 99.46,-86.53"/>
</g>
<g id="clust2" class="cluster">
<title>cluster_r1</title>
<path fill="#eceff1" stroke="#90a4ae" stroke-width="1.5" d="M107.46,-266.81C107.46,-266.81 237.46,-266.81 237.46,-266.81 243.46,-266.81 249.46,-272.81 249.46,-278.81 249.46,-278.81 249.46,-336.59 249.46,-336.59 249.46,-342.59 243.46,-348.59 237.46,-348.59 237.46,-348.59 107.46,-348.59 107.46,-348.59 101.46,-348.59 95.46,-342.59 95.46,-336.59 95.46,-336.59 95.46,-278.81 95.46,-278.81 95.46,-272.81 101.46,-266.81 107.46,-266.81"/>
<text xml:space="preserve" text-anchor="middle" x="172.46" y="-334.14" font-family="Helvetica,sans-Serif" font-weight="bold" font-size="11.00" fill="#37474f">robot 1</text>
</g>
<g id="clust3" class="cluster">
<title>cluster_r2</title>
<path fill="#eceff1" stroke="#90a4ae" stroke-width="1.5" d="M285.46,-266.81C285.46,-266.81 415.46,-266.81 415.46,-266.81 421.46,-266.81 427.46,-272.81 427.46,-278.81 427.46,-278.81 427.46,-336.59 427.46,-336.59 427.46,-342.59 421.46,-348.59 415.46,-348.59 415.46,-348.59 285.46,-348.59 285.46,-348.59 279.46,-348.59 273.46,-342.59 273.46,-336.59 273.46,-336.59 273.46,-278.81 273.46,-278.81 273.46,-272.81 279.46,-266.81 285.46,-266.81"/>
<text xml:space="preserve" text-anchor="middle" x="350.46" y="-334.14" font-family="Helvetica,sans-Serif" font-weight="bold" font-size="11.00" fill="#37474f">robot 2</text>
</g>
<g id="clust4" class="cluster">
<title>cluster_rN</title>
<path fill="#eceff1" stroke="#90a4ae" stroke-width="1.5" d="M463.46,-266.81C463.46,-266.81 593.46,-266.81 593.46,-266.81 599.46,-266.81 605.46,-272.81 605.46,-278.81 605.46,-278.81 605.46,-336.59 605.46,-336.59 605.46,-342.59 599.46,-348.59 593.46,-348.59 593.46,-348.59 463.46,-348.59 463.46,-348.59 457.46,-348.59 451.46,-342.59 451.46,-336.59 451.46,-336.59 451.46,-278.81 451.46,-278.81 451.46,-272.81 457.46,-266.81 463.46,-266.81"/>
<text xml:space="preserve" text-anchor="middle" x="528.46" y="-334.14" font-family="Helvetica,sans-Serif" font-weight="bold" font-size="11.00" fill="#37474f">robot N</text>
</g>
<!-- a1 -->
<g id="node1" class="node">
<title>a1</title>
<path fill="#c5e1a5" stroke="black" stroke-width="1.1" d="M229.67,-319.09C229.67,-319.09 115.25,-319.09 115.25,-319.09 109.25,-319.09 103.25,-313.09 103.25,-307.09 103.25,-307.09 103.25,-286.81 103.25,-286.81 103.25,-280.81 109.25,-274.81 115.25,-274.81 115.25,-274.81 229.67,-274.81 229.67,-274.81 235.67,-274.81 241.67,-280.81 241.67,-286.81 241.67,-286.81 241.67,-307.09 241.67,-307.09 241.67,-313.09 235.67,-319.09 229.67,-319.09"/>
<text xml:space="preserve" text-anchor="middle" x="172.46" y="-300" font-family="Helvetica,sans-Serif" font-size="11.00">ROS app</text>
<text xml:space="preserve" text-anchor="middle" x="172.46" y="-286.5" font-family="Helvetica,sans-Serif" font-size="11.00">bridge · dsm · policy</text>
</g>
<!-- a2 -->
<g id="node2" class="node">
<title>a2</title>
<path fill="#c5e1a5" stroke="black" stroke-width="1.1" d="M407.67,-319.09C407.67,-319.09 293.25,-319.09 293.25,-319.09 287.25,-319.09 281.25,-313.09 281.25,-307.09 281.25,-307.09 281.25,-286.81 281.25,-286.81 281.25,-280.81 287.25,-274.81 293.25,-274.81 293.25,-274.81 407.67,-274.81 407.67,-274.81 413.67,-274.81 419.67,-280.81 419.67,-286.81 419.67,-286.81 419.67,-307.09 419.67,-307.09 419.67,-313.09 413.67,-319.09 407.67,-319.09"/>
<text xml:space="preserve" text-anchor="middle" x="350.46" y="-300" font-family="Helvetica,sans-Serif" font-size="11.00">ROS app</text>
<text xml:space="preserve" text-anchor="middle" x="350.46" y="-286.5" font-family="Helvetica,sans-Serif" font-size="11.00">bridge · dsm · policy</text>
</g>
<!-- a1&#45;&gt;a2 -->
<g id="edge5" class="edge">
<title>a1&#45;&gt;a2</title>
<path fill="none" stroke="#66bb6a" stroke-dasharray="5,2" d="M253.26,-296.95C258.74,-296.95 264.23,-296.95 269.71,-296.95"/>
<polygon fill="#66bb6a" stroke="#66bb6a" points="253.5,-293.45 243.5,-296.95 253.5,-300.45 253.5,-293.45"/>
<polygon fill="#66bb6a" stroke="#66bb6a" points="269.46,-300.45 279.46,-296.95 269.46,-293.45 269.46,-300.45"/>
</g>
<!-- fc -->
<g id="node4" class="node">
<title>fc</title>
<path fill="#bbdefb" stroke="#1e88e5" stroke-width="2" d="M417.79,-224.81C417.79,-224.81 283.12,-224.81 283.12,-224.81 277.12,-224.81 271.12,-218.81 271.12,-212.81 271.12,-212.81 271.12,-192.53 271.12,-192.53 271.12,-186.53 277.12,-180.53 283.12,-180.53 283.12,-180.53 417.79,-180.53 417.79,-180.53 423.79,-180.53 429.79,-186.53 429.79,-192.53 429.79,-192.53 429.79,-212.81 429.79,-212.81 429.79,-218.81 423.79,-224.81 417.79,-224.81"/>
<text xml:space="preserve" text-anchor="middle" x="350.46" y="-205.72" font-family="Helvetica,sans-Serif" font-size="11.00">central coordinator</text>
<text xml:space="preserve" text-anchor="middle" x="350.46" y="-192.22" font-family="Helvetica,sans-Serif" font-size="11.00">(single shared federate)</text>
</g>
<!-- a1&#45;&gt;fc -->
<g id="edge1" class="edge">
<title>a1&#45;&gt;fc</title>
<path fill="none" stroke="#1565c0" d="M214.19,-274.31C239.25,-261.32 271.35,-244.68 298.1,-230.82"/>
<polygon fill="#1565c0" stroke="#1565c0" points="299.45,-234.06 306.72,-226.35 296.23,-227.84 299.45,-234.06"/>
</g>
<!-- aN -->
<g id="node3" class="node">
<title>aN</title>
<path fill="#c5e1a5" stroke="black" stroke-width="1.1" d="M585.67,-319.09C585.67,-319.09 471.25,-319.09 471.25,-319.09 465.25,-319.09 459.25,-313.09 459.25,-307.09 459.25,-307.09 459.25,-286.81 459.25,-286.81 459.25,-280.81 465.25,-274.81 471.25,-274.81 471.25,-274.81 585.67,-274.81 585.67,-274.81 591.67,-274.81 597.67,-280.81 597.67,-286.81 597.67,-286.81 597.67,-307.09 597.67,-307.09 597.67,-313.09 591.67,-319.09 585.67,-319.09"/>
<text xml:space="preserve" text-anchor="middle" x="528.46" y="-300" font-family="Helvetica,sans-Serif" font-size="11.00">ROS app</text>
<text xml:space="preserve" text-anchor="middle" x="528.46" y="-286.5" font-family="Helvetica,sans-Serif" font-size="11.00">bridge · dsm · policy</text>
</g>
<!-- a2&#45;&gt;aN -->
<g id="edge6" class="edge">
<title>a2&#45;&gt;aN</title>
<path fill="none" stroke="#66bb6a" stroke-dasharray="5,2" d="M431.26,-296.95C436.74,-296.95 442.23,-296.95 447.71,-296.95"/>
<polygon fill="#66bb6a" stroke="#66bb6a" points="431.5,-293.45 421.5,-296.95 431.5,-300.45 431.5,-293.45"/>
<polygon fill="#66bb6a" stroke="#66bb6a" points="447.46,-300.45 457.46,-296.95 447.46,-293.45 447.46,-300.45"/>
</g>
<!-- a2&#45;&gt;fc -->
<g id="edge2" class="edge">
<title>a2&#45;&gt;fc</title>
<path fill="none" stroke="#1565c0" d="M350.46,-274.55C350.46,-263.41 350.46,-249.55 350.46,-237.04"/>
<polygon fill="#1565c0" stroke="#1565c0" points="353.96,-237.11 350.46,-227.11 346.96,-237.11 353.96,-237.11"/>
</g>
<!-- aN&#45;&gt;fc -->
<g id="edge3" class="edge">
<title>aN&#45;&gt;fc</title>
<path fill="none" stroke="#1565c0" d="M486.73,-274.31C461.67,-261.32 429.57,-244.68 402.82,-230.82"/>
<polygon fill="#1565c0" stroke="#1565c0" points="404.69,-227.84 394.2,-226.35 401.47,-234.06 404.69,-227.84"/>
</g>
<!-- rti -->
<g id="node5" class="node">
<title>rti</title>
<path fill="#ffe0b2" stroke="black" stroke-width="1.6" d="M408.42,-130.53C408.42,-130.53 292.5,-130.53 292.5,-130.53 286.5,-130.53 280.5,-124.53 280.5,-118.53 280.5,-118.53 280.5,-106.53 280.5,-106.53 280.5,-100.53 286.5,-94.53 292.5,-94.53 292.5,-94.53 408.42,-94.53 408.42,-94.53 414.42,-94.53 420.42,-100.53 420.42,-106.53 420.42,-106.53 420.42,-118.53 420.42,-118.53 420.42,-124.53 414.42,-130.53 408.42,-130.53"/>
<text xml:space="preserve" text-anchor="middle" x="350.46" y="-108.83" font-family="Helvetica,sans-Serif" font-size="11.00">RTI &#160;&#160;— &#160;&#160;logical time</text>
</g>
<!-- fc&#45;&gt;rti -->
<g id="edge4" class="edge">
<title>fc&#45;&gt;rti</title>
<path fill="none" stroke="#1565c0" d="M350.46,-179.88C350.46,-168.64 350.46,-154.78 350.46,-142.63"/>
<polygon fill="#1565c0" stroke="#1565c0" points="353.96,-142.74 350.46,-132.74 346.96,-142.74 353.96,-142.74"/>
</g>
<!-- legend -->
<g id="node6" class="node">
<title>legend</title>
<path fill="none" stroke="none" stroke-width="1.1" d="M688.92,-44.53C688.92,-44.53 12,-44.53 12,-44.53 6,-44.53 0,-38.53 0,-32.53 0,-32.53 0,-12 0,-12 0,-6 6,0 12,0 12,0 688.92,0 688.92,0 694.92,0 700.92,-6 700.92,-12 700.92,-12 700.92,-32.53 700.92,-32.53 700.92,-38.53 694.92,-44.53 688.92,-44.53"/>
<text xml:space="preserve" text-anchor="start" x="20.96" y="-19.34" font-family="Helvetica,sans-Serif" font-size="9.00" fill="#1565c0">—— control plane (every app → one coordinator → RTI)</text>
<text xml:space="preserve" text-anchor="start" x="278.46" y="-19.34" font-family="Helvetica,sans-Serif" font-size="9.00" fill="#2e7d32">&#45; &#45; DDS gossip (data plane)</text>
<text xml:space="preserve" text-anchor="start" x="409.96" y="-19.34" font-family="Helvetica,sans-Serif" font-size="9.00" fill="#1e88e5">single coordinator: contention point + single point of failure</text>
</g>
<!-- rti&#45;&gt;legend -->
</g>
</svg>
